<mxfile host="app.diagrams.net" modified="2024-05-01T17:35:08.780Z" agent="Mozilla/5.0 (Windows NT 10.0; Win64; x64) AppleWebKit/537.36 (KHTML, like Gecko) Chrome/122.0.0.0 YaBrowser/24.4.0.0 Safari/537.36" etag="phJU06I4RK6VtoXysUaG" version="24.3.1" type="device">
  <diagram name="Страница — 1" id="ynd8DyV4F_SWjs0WeMTN">
    <mxGraphModel dx="1002" dy="575" grid="1" gridSize="10" guides="1" tooltips="1" connect="1" arrows="1" fold="1" page="1" pageScale="1" pageWidth="827" pageHeight="1169" math="0" shadow="0">
      <root>
        <mxCell id="0" />
        <mxCell id="1" parent="0" />
        <mxCell id="STu5PvhRi-7E_WCLaRz1-11" style="edgeStyle=orthogonalEdgeStyle;rounded=0;orthogonalLoop=1;jettySize=auto;html=1;exitX=0.5;exitY=0.5;exitDx=0;exitDy=0;exitPerimeter=0;entryX=0;entryY=0.5;entryDx=0;entryDy=0;" edge="1" parent="1" source="STu5PvhRi-7E_WCLaRz1-1" target="STu5PvhRi-7E_WCLaRz1-7">
          <mxGeometry relative="1" as="geometry" />
        </mxCell>
        <mxCell id="STu5PvhRi-7E_WCLaRz1-1" value="Клиент&lt;div&gt;&lt;br&gt;&lt;/div&gt;" style="shape=umlActor;verticalLabelPosition=bottom;verticalAlign=top;html=1;outlineConnect=0;" vertex="1" parent="1">
          <mxGeometry x="110" y="290" width="30" height="60" as="geometry" />
        </mxCell>
        <mxCell id="STu5PvhRi-7E_WCLaRz1-10" style="edgeStyle=orthogonalEdgeStyle;rounded=0;orthogonalLoop=1;jettySize=auto;html=1;exitX=0.5;exitY=0.5;exitDx=0;exitDy=0;exitPerimeter=0;entryX=0;entryY=0.25;entryDx=0;entryDy=0;" edge="1" parent="1" source="STu5PvhRi-7E_WCLaRz1-6" target="STu5PvhRi-7E_WCLaRz1-7">
          <mxGeometry relative="1" as="geometry" />
        </mxCell>
        <mxCell id="STu5PvhRi-7E_WCLaRz1-12" style="edgeStyle=orthogonalEdgeStyle;rounded=0;orthogonalLoop=1;jettySize=auto;html=1;exitX=1;exitY=0.3333333333333333;exitDx=0;exitDy=0;exitPerimeter=0;entryX=0;entryY=0.5;entryDx=0;entryDy=0;" edge="1" parent="1" source="STu5PvhRi-7E_WCLaRz1-6" target="STu5PvhRi-7E_WCLaRz1-8">
          <mxGeometry relative="1" as="geometry" />
        </mxCell>
        <mxCell id="STu5PvhRi-7E_WCLaRz1-6" value="Агент&lt;div&gt;&lt;br&gt;&lt;/div&gt;" style="shape=umlActor;verticalLabelPosition=bottom;verticalAlign=top;html=1;outlineConnect=0;" vertex="1" parent="1">
          <mxGeometry x="100" y="140" width="30" height="60" as="geometry" />
        </mxCell>
        <mxCell id="STu5PvhRi-7E_WCLaRz1-7" value="Договор" style="rounded=1;whiteSpace=wrap;html=1;" vertex="1" parent="1">
          <mxGeometry x="250" y="220" width="120" height="60" as="geometry" />
        </mxCell>
        <mxCell id="STu5PvhRi-7E_WCLaRz1-13" style="edgeStyle=orthogonalEdgeStyle;rounded=0;orthogonalLoop=1;jettySize=auto;html=1;exitX=0;exitY=0.75;exitDx=0;exitDy=0;entryX=0;entryY=0.25;entryDx=0;entryDy=0;" edge="1" parent="1" source="STu5PvhRi-7E_WCLaRz1-8" target="STu5PvhRi-7E_WCLaRz1-9">
          <mxGeometry relative="1" as="geometry" />
        </mxCell>
        <mxCell id="STu5PvhRi-7E_WCLaRz1-8" value="Вид страхования&lt;div&gt;&lt;br&gt;&lt;/div&gt;" style="rounded=1;whiteSpace=wrap;html=1;" vertex="1" parent="1">
          <mxGeometry x="450" y="120" width="120" height="60" as="geometry" />
        </mxCell>
        <mxCell id="STu5PvhRi-7E_WCLaRz1-14" style="edgeStyle=orthogonalEdgeStyle;rounded=0;orthogonalLoop=1;jettySize=auto;html=1;exitX=0;exitY=0.75;exitDx=0;exitDy=0;entryX=1;entryY=0.75;entryDx=0;entryDy=0;" edge="1" parent="1" source="STu5PvhRi-7E_WCLaRz1-9" target="STu5PvhRi-7E_WCLaRz1-7">
          <mxGeometry relative="1" as="geometry" />
        </mxCell>
        <mxCell id="STu5PvhRi-7E_WCLaRz1-9" value="Страховой случай&lt;div&gt;&lt;br&gt;&lt;/div&gt;" style="rounded=1;whiteSpace=wrap;html=1;" vertex="1" parent="1">
          <mxGeometry x="450" y="320" width="120" height="60" as="geometry" />
        </mxCell>
        <mxCell id="STu5PvhRi-7E_WCLaRz1-16" style="edgeStyle=orthogonalEdgeStyle;rounded=0;orthogonalLoop=1;jettySize=auto;html=1;exitX=0;exitY=0.5;exitDx=0;exitDy=0;entryX=0.5;entryY=0;entryDx=0;entryDy=0;" edge="1" parent="1" source="STu5PvhRi-7E_WCLaRz1-15" target="STu5PvhRi-7E_WCLaRz1-7">
          <mxGeometry relative="1" as="geometry">
            <Array as="points">
              <mxPoint x="310" y="80" />
            </Array>
          </mxGeometry>
        </mxCell>
        <mxCell id="STu5PvhRi-7E_WCLaRz1-15" value="Страховая компания" style="rounded=1;whiteSpace=wrap;html=1;" vertex="1" parent="1">
          <mxGeometry x="240" y="50" width="130" height="60" as="geometry" />
        </mxCell>
      </root>
    </mxGraphModel>
  </diagram>
</mxfile>
